<svg width="40" height="41" viewBox="0 0 40 41" fill="none" xmlns="http://www.w3.org/2000/svg">
<rect x="0.121094" width="39.293" height="40.293" rx="6" fill="black"/>
<g clip-path="url(#clip0_1_175)">
<path d="M19.7676 11.9473C22.4395 11.9473 22.7559 11.959 23.8066 12.0059C24.7832 12.0488 25.3105 12.2129 25.6621 12.3496C26.127 12.5293 26.4629 12.748 26.8105 13.0957C27.1621 13.4473 27.377 13.7793 27.5566 14.2441C27.6934 14.5957 27.8574 15.127 27.9004 16.0996C27.9473 17.1543 27.959 17.4707 27.959 20.1387C27.959 22.8105 27.9473 23.127 27.9004 24.1777C27.8574 25.1543 27.6934 25.6816 27.5566 26.0332C27.377 26.498 27.1582 26.834 26.8105 27.1816C26.459 27.5332 26.127 27.748 25.6621 27.9277C25.3105 28.0645 24.7793 28.2285 23.8066 28.2715C22.752 28.3184 22.4355 28.3301 19.7676 28.3301C17.0957 28.3301 16.7793 28.3184 15.7285 28.2715C14.752 28.2285 14.2246 28.0645 13.873 27.9277C13.4082 27.748 13.0723 27.5293 12.7246 27.1816C12.373 26.8301 12.1582 26.498 11.9785 26.0332C11.8418 25.6816 11.6777 25.1504 11.6348 24.1777C11.5879 23.123 11.5762 22.8066 11.5762 20.1387C11.5762 17.4668 11.5879 17.1504 11.6348 16.0996C11.6777 15.123 11.8418 14.5957 11.9785 14.2441C12.1582 13.7793 12.377 13.4434 12.7246 13.0957C13.0762 12.7441 13.4082 12.5293 13.873 12.3496C14.2246 12.2129 14.7559 12.0488 15.7285 12.0059C16.7793 11.959 17.0957 11.9473 19.7676 11.9473ZM19.7676 10.1465C17.0527 10.1465 16.7129 10.1582 15.6465 10.2051C14.584 10.252 13.8535 10.4238 13.2207 10.6699C12.5605 10.9277 12.002 11.2676 11.4473 11.8262C10.8887 12.3809 10.5488 12.9395 10.291 13.5957C10.0449 14.2324 9.87305 14.959 9.82617 16.0215C9.7793 17.0918 9.76758 17.4316 9.76758 20.1465C9.76758 22.8613 9.7793 23.2012 9.82617 24.2676C9.87305 25.3301 10.0449 26.0605 10.291 26.6934C10.5488 27.3535 10.8887 27.9121 11.4473 28.4668C12.002 29.0215 12.5605 29.3652 13.2168 29.6191C13.8535 29.8652 14.5801 30.0371 15.6426 30.084C16.709 30.1309 17.0488 30.1426 19.7637 30.1426C22.4785 30.1426 22.8184 30.1309 23.8848 30.084C24.9473 30.0371 25.6777 29.8652 26.3105 29.6191C26.9668 29.3652 27.5254 29.0215 28.0801 28.4668C28.6348 27.9121 28.9785 27.3535 29.2324 26.6973C29.4785 26.0605 29.6504 25.334 29.6973 24.2715C29.7441 23.2051 29.7559 22.8652 29.7559 20.1504C29.7559 17.4355 29.7441 17.0957 29.6973 16.0293C29.6504 14.9668 29.4785 14.2363 29.2324 13.6035C28.9863 12.9395 28.6465 12.3809 28.0879 11.8262C27.5332 11.2715 26.9746 10.9277 26.3184 10.6738C25.6816 10.4277 24.9551 10.2559 23.8926 10.209C22.8223 10.1582 22.4824 10.1465 19.7676 10.1465Z" fill="white"/>
<path d="M19.7676 15.0098C16.9316 15.0098 14.6309 17.3105 14.6309 20.1465C14.6309 22.9824 16.9316 25.2832 19.7676 25.2832C22.6035 25.2832 24.9043 22.9824 24.9043 20.1465C24.9043 17.3105 22.6035 15.0098 19.7676 15.0098ZM19.7676 23.4785C17.9277 23.4785 16.4355 21.9863 16.4355 20.1465C16.4355 18.3066 17.9277 16.8145 19.7676 16.8145C21.6074 16.8145 23.0996 18.3066 23.0996 20.1465C23.0996 21.9863 21.6074 23.4785 19.7676 23.4785Z" fill="white"/>
<path d="M26.3066 14.8066C26.3066 15.4706 25.7676 16.0058 25.1074 16.0058C24.4434 16.0058 23.9082 15.4667 23.9082 14.8066C23.9082 14.1425 24.4473 13.6074 25.1074 13.6074C25.7676 13.6074 26.3066 14.1464 26.3066 14.8066Z" fill="white"/>
</g>
<defs>
<clipPath id="clip0_1_175">
<rect width="20" height="20" fill="white" transform="translate(9.76758 10.1465)"/>
</clipPath>
</defs>
</svg>
